<svg xmlns="http://www.w3.org/2000/svg" class="about--svg">

<symbol viewBox="0 0 101 44" id="first--icon">
<g clip-path="url(#clip0_22721_7775)">
<path d="M27.1137 12.3054C26.9447 12.1374 26.7457 12.0529 26.5157 12.0529C26.4012 12.0529 26.1597 12.1469 25.7927 12.3324C25.4252 12.5184 25.0352 12.7254 24.6247 12.9564C24.2132 13.1859 23.7262 13.3939 23.1642 13.5799C22.6027 13.7654 22.0827 13.8594 21.6042 13.8594C21.1622 13.8594 20.7722 13.7754 20.4362 13.6069C19.3217 13.0849 18.3522 12.6954 17.5292 12.4384C16.7062 12.1819 15.8212 12.0529 14.8737 12.0529C13.2377 12.0529 11.3742 12.5849 9.28524 13.6469C8.85424 13.8619 8.54524 14.0284 8.34524 14.1504L8.14674 12.6949C8.59524 12.3054 8.88474 11.7379 8.88474 11.0974C8.88474 9.9239 7.93374 8.9729 6.76024 8.9729C5.58674 8.9729 4.63574 9.9239 4.63574 11.0974C4.63574 11.8629 5.04474 12.5284 5.65174 12.9024L8.52174 33.9474C8.60724 34.5739 9.14324 35.0284 9.75874 35.0284C9.81474 35.0284 9.87174 35.0249 9.92924 35.0174C10.6132 34.9234 11.0922 34.2939 10.9987 33.6099L9.84524 25.1514C11.9382 24.1129 13.7487 23.5894 15.2717 23.5894C15.9182 23.5894 16.5487 23.6859 17.1632 23.8809C17.7782 24.0764 18.2897 24.2884 18.6967 24.5179C19.1037 24.7479 19.5842 24.9609 20.1367 25.1549C20.6902 25.3499 21.2367 25.4474 21.7762 25.4474C23.1392 25.4474 24.7717 24.9339 26.6742 23.9074C26.9132 23.7834 27.0882 23.6614 27.1987 23.5419C27.3092 23.4224 27.3647 23.2524 27.3647 23.0314V12.9029C27.3647 12.6734 27.2812 12.4739 27.1137 12.3054Z" fill="#F0145A"/>
<path d="M51.5127 9.8V35H45.6807V14.48H40.6407V9.8H51.5127ZM66.6903 35.432C64.6023 35.432 62.7423 34.916 61.1103 33.884C59.4783 32.852 58.1943 31.364 57.2583 29.42C56.3463 27.452 55.8903 25.112 55.8903 22.4C55.8903 19.688 56.3463 17.36 57.2583 15.416C58.1943 13.448 59.4783 11.948 61.1103 10.916C62.7423 9.884 64.6023 9.368 66.6903 9.368C68.7783 9.368 70.6383 9.884 72.2703 10.916C73.9023 11.948 75.1743 13.448 76.0863 15.416C77.0223 17.36 77.4903 19.688 77.4903 22.4C77.4903 25.112 77.0223 27.452 76.0863 29.42C75.1743 31.364 73.9023 32.852 72.2703 33.884C70.6383 34.916 68.7783 35.432 66.6903 35.432ZM66.6903 30.5C68.2263 30.5 69.4263 29.84 70.2903 28.52C71.1783 27.2 71.6223 25.16 71.6223 22.4C71.6223 19.64 71.1783 17.6 70.2903 16.28C69.4263 14.96 68.2263 14.3 66.6903 14.3C65.1783 14.3 63.9783 14.96 63.0903 16.28C62.2263 17.6 61.7943 19.64 61.7943 22.4C61.7943 25.16 62.2263 27.2 63.0903 28.52C63.9783 29.84 65.1783 30.5 66.6903 30.5ZM98.4285 24.596H92.1645V30.716H87.5205V24.596H81.2925V20.204H87.5205V14.084H92.1645V20.204H98.4285V24.596Z" fill="url(#paint0_linear_22721_7775)"/>
</g>
<defs>
<linearGradient id="paint0_linear_22721_7775" x1="40.4766" y1="12.32" x2="101.072" y2="12.5097" gradientUnits="userSpaceOnUse">
<stop stop-color="#F0145A"/>
<stop offset="1" stop-color="#EF8080"/>
</linearGradient>
<clipPath id="clip0_22721_7775">
<rect width="101" height="44" fill="white"/>
</clipPath>
</defs>
</symbol>

<symbol viewBox="0 0 108 44" id="second--icon">
<g clip-path="url(#clip0_22721_7780)">
<path d="M17.2321 24.332V23.774C17.2321 23.0935 16.6806 22.542 16.0006 22.542C15.3201 22.542 14.7686 23.0935 14.7686 23.774V24.332C14.7686 25.0125 15.3201 25.564 16.0006 25.564C16.6801 25.564 17.2321 25.0125 17.2321 24.332Z" fill="#F0145A"/>
<path d="M18.0769 25.0136C17.8039 25.9071 16.9814 26.5631 16.0004 26.5631C15.0189 26.5631 14.1964 25.9071 13.9234 25.0136H5.43886C4.90336 25.0136 4.39736 24.8891 3.94336 24.6731V30.3066C3.94336 31.4066 4.84336 32.3066 5.94336 32.3066H26.0564C27.1564 32.3066 28.0564 31.4066 28.0564 30.3066V24.6736C27.6019 24.8896 27.0964 25.0141 26.5609 25.0141H18.0769V25.0136Z" fill="#F0145A"/>
<path d="M26.4775 14.8976H21.677C21.387 13.0846 19.8165 11.6936 17.923 11.6936H14.0765C12.183 11.6936 10.613 13.0846 10.3225 14.8976H5.52247C4.37647 14.8976 3.43896 15.7976 3.43896 16.8976V21.5141C3.43896 22.6186 4.33447 23.5141 5.43897 23.5141H13.829C13.8575 22.9386 14.1045 22.4216 14.495 22.0476C14.507 22.0361 14.521 22.0271 14.5335 22.0161C14.62 21.9366 14.71 21.8616 14.8085 21.7966C14.8435 21.7731 14.8835 21.7571 14.92 21.7361C15.001 21.6896 15.081 21.6411 15.1685 21.6051C15.237 21.5766 15.311 21.5601 15.383 21.5386C15.445 21.5201 15.504 21.4956 15.5685 21.4826C15.708 21.4541 15.8525 21.4391 16 21.4391C16.148 21.4391 16.292 21.4546 16.4315 21.4826C16.4955 21.4956 16.5545 21.5201 16.6165 21.5386C16.6885 21.5601 16.7625 21.5766 16.831 21.6056C16.918 21.6416 16.9975 21.6896 17.0785 21.7361C17.1155 21.7576 17.1555 21.7736 17.191 21.7971C17.2895 21.8616 17.379 21.9366 17.4655 22.0161C17.478 22.0276 17.4925 22.0366 17.5045 22.0486C17.8955 22.4226 18.142 22.9396 18.1705 23.5151H26.5605C27.665 23.5151 28.5605 22.6196 28.5605 21.5151V16.8986C28.561 15.7976 27.6235 14.8976 26.4775 14.8976ZM12.248 14.8976C12.503 14.1271 13.2215 13.5656 14.0765 13.5656H17.923C18.778 13.5656 19.4965 14.1271 19.7515 14.8976H12.248Z" fill="#F0145A"/>
<path d="M53.4612 20.06C55.6692 20.42 57.3612 21.248 58.5372 22.544C59.7132 23.816 60.3012 25.4 60.3012 27.296C60.3012 28.76 59.9172 30.116 59.1492 31.364C58.3812 32.588 57.2052 33.572 55.6212 34.316C54.0612 35.06 52.1412 35.432 49.8612 35.432C48.0852 35.432 46.3332 35.204 44.6052 34.748C42.9012 34.268 41.4492 33.596 40.2492 32.732L42.5172 28.268C43.4772 28.988 44.5812 29.552 45.8292 29.96C47.1012 30.344 48.3972 30.536 49.7172 30.536C51.1812 30.536 52.3332 30.26 53.1732 29.708C54.0132 29.132 54.4332 28.328 54.4332 27.296C54.4332 25.232 52.8612 24.2 49.7172 24.2H47.0532V20.348L52.2372 14.48H41.5092V9.8H59.1492V13.58L53.4612 20.06ZM73.7938 35.432C71.7058 35.432 69.8458 34.916 68.2138 33.884C66.5818 32.852 65.2978 31.364 64.3618 29.42C63.4498 27.452 62.9938 25.112 62.9938 22.4C62.9938 19.688 63.4498 17.36 64.3618 15.416C65.2978 13.448 66.5818 11.948 68.2138 10.916C69.8458 9.884 71.7058 9.368 73.7938 9.368C75.8818 9.368 77.7418 9.884 79.3738 10.916C81.0058 11.948 82.2778 13.448 83.1898 15.416C84.1258 17.36 84.5938 19.688 84.5938 22.4C84.5938 25.112 84.1258 27.452 83.1898 29.42C82.2778 31.364 81.0058 32.852 79.3738 33.884C77.7418 34.916 75.8818 35.432 73.7938 35.432ZM73.7938 30.5C75.3298 30.5 76.5298 29.84 77.3938 28.52C78.2818 27.2 78.7258 25.16 78.7258 22.4C78.7258 19.64 78.2818 17.6 77.3938 16.28C76.5298 14.96 75.3298 14.3 73.7938 14.3C72.2818 14.3 71.0818 14.96 70.1938 16.28C69.3298 17.6 68.8978 19.64 68.8978 22.4C68.8978 25.16 69.3298 27.2 70.1938 28.52C71.0818 29.84 72.2818 30.5 73.7938 30.5ZM105.532 24.596H99.2681V30.716H94.6241V24.596H88.3961V20.204H94.6241V14.084H99.2681V20.204H105.532V24.596Z" fill="url(#paint0_linear_22721_7780)"/>
</g>
<defs>
<linearGradient id="paint0_linear_22721_7780" x1="40.5312" y1="12.32" x2="108.08" y2="12.5557" gradientUnits="userSpaceOnUse">
<stop stop-color="#F0145A"/>
<stop offset="1" stop-color="#EF8080"/>
</linearGradient>
<clipPath id="clip0_22721_7780">
<rect width="108" height="44" fill="white"/>
</clipPath>
</defs>
</symbol>

<symbol viewBox="0 0 132 44" id="third--icon">
<g clip-path="url(#clip0_22721_7785)">
<path d="M16.0971 9.55298C9.25258 9.55298 3.68408 15.1215 3.68408 21.966C3.68408 28.811 9.25258 34.38 16.0971 34.38C22.9416 34.38 28.5101 28.811 28.5101 21.966C28.5106 15.1215 22.9421 9.55298 16.0971 9.55298ZM22.9556 21.0585V21.059L19.3621 23.659L20.7461 27.889C20.7681 27.955 20.7796 28.0255 20.7796 28.0975C20.7796 28.467 20.4806 28.767 20.1111 28.767C19.9641 28.767 19.8291 28.72 19.7191 28.6405L16.0976 26.021L12.4761 28.6405C12.3661 28.72 12.2311 28.767 12.0846 28.767C11.7146 28.767 11.4151 28.4675 11.4151 28.0975C11.4151 28.025 11.4271 27.955 11.4491 27.889L12.8336 23.659L9.24008 21.059V21.0585C9.07208 20.9375 8.96308 20.74 8.96308 20.517C8.96308 20.1475 9.26208 19.8485 9.63208 19.8485H14.0806L15.4581 15.638C15.5421 15.3645 15.7966 15.1655 16.0981 15.1655C16.3991 15.1655 16.6541 15.3645 16.7376 15.638L18.1151 19.8485H22.5636C22.9331 19.8485 23.2326 20.1475 23.2326 20.517C23.2321 20.74 23.1231 20.9375 22.9556 21.0585Z" fill="#F0145A"/>
<path d="M50.0596 19.268C53.6116 19.268 56.2276 19.976 57.9076 21.392C59.6116 22.808 60.4636 24.704 60.4636 27.08C60.4636 28.616 60.0796 30.02 59.3116 31.292C58.5436 32.54 57.3676 33.548 55.7836 34.316C54.2236 35.06 52.2916 35.432 49.9876 35.432C48.2116 35.432 46.4596 35.204 44.7316 34.748C43.0276 34.268 41.5756 33.596 40.3756 32.732L42.6796 28.268C43.6396 28.988 44.7436 29.552 45.9916 29.96C47.2396 30.344 48.5236 30.536 49.8436 30.536C51.3076 30.536 52.4596 30.248 53.2996 29.672C54.1396 29.096 54.5596 28.292 54.5596 27.26C54.5596 26.18 54.1156 25.364 53.2276 24.812C52.3636 24.26 50.8516 23.984 48.6916 23.984H42.2476L43.5436 9.8H58.9156V14.48H48.4036L48.0076 19.268H50.0596ZM73.6298 35.432C71.5418 35.432 69.6818 34.916 68.0498 33.884C66.4178 32.852 65.1338 31.364 64.1978 29.42C63.2858 27.452 62.8298 25.112 62.8298 22.4C62.8298 19.688 63.2858 17.36 64.1978 15.416C65.1338 13.448 66.4178 11.948 68.0498 10.916C69.6818 9.884 71.5418 9.368 73.6298 9.368C75.7178 9.368 77.5778 9.884 79.2098 10.916C80.8418 11.948 82.1138 13.448 83.0258 15.416C83.9618 17.36 84.4298 19.688 84.4298 22.4C84.4298 25.112 83.9618 27.452 83.0258 29.42C82.1138 31.364 80.8418 32.852 79.2098 33.884C77.5778 34.916 75.7178 35.432 73.6298 35.432ZM73.6298 30.5C75.1658 30.5 76.3658 29.84 77.2298 28.52C78.1178 27.2 78.5618 25.16 78.5618 22.4C78.5618 19.64 78.1178 17.6 77.2298 16.28C76.3658 14.96 75.1658 14.3 73.6298 14.3C72.1178 14.3 70.9178 14.96 70.0298 16.28C69.1658 17.6 68.7338 19.64 68.7338 22.4C68.7338 25.16 69.1658 27.2 70.0298 28.52C70.9178 29.84 72.1178 30.5 73.6298 30.5ZM98.0634 35.432C95.9754 35.432 94.1154 34.916 92.4834 33.884C90.8514 32.852 89.5674 31.364 88.6314 29.42C87.7194 27.452 87.2634 25.112 87.2634 22.4C87.2634 19.688 87.7194 17.36 88.6314 15.416C89.5674 13.448 90.8514 11.948 92.4834 10.916C94.1154 9.884 95.9754 9.368 98.0634 9.368C100.151 9.368 102.011 9.884 103.643 10.916C105.275 11.948 106.547 13.448 107.459 15.416C108.395 17.36 108.863 19.688 108.863 22.4C108.863 25.112 108.395 27.452 107.459 29.42C106.547 31.364 105.275 32.852 103.643 33.884C102.011 34.916 100.151 35.432 98.0634 35.432ZM98.0634 30.5C99.5994 30.5 100.799 29.84 101.663 28.52C102.551 27.2 102.995 25.16 102.995 22.4C102.995 19.64 102.551 17.6 101.663 16.28C100.799 14.96 99.5994 14.3 98.0634 14.3C96.5514 14.3 95.3514 14.96 94.4634 16.28C93.5994 17.6 93.1674 19.64 93.1674 22.4C93.1674 25.16 93.5994 27.2 94.4634 28.52C95.3514 29.84 96.5514 30.5 98.0634 30.5ZM129.802 24.596H123.538V30.716H118.894V24.596H112.666V20.204H118.894V14.084H123.538V20.204H129.802V24.596Z" fill="url(#paint0_linear_22721_7785)"/>
</g>
<defs>
<linearGradient id="paint0_linear_22721_7785" x1="40.7187" y1="12.32" x2="132.108" y2="12.7514" gradientUnits="userSpaceOnUse">
<stop stop-color="#F0145A"/>
<stop offset="1" stop-color="#EF8080"/>
</linearGradient>
<clipPath id="clip0_22721_7785">
<rect width="132" height="44" fill="white"/>
</clipPath>
</defs>

</symbol>
</svg>






